<?xml version="1.0" encoding="UTF-8" standalone="no"?>
<!-- Created with Inkscape (http://www.inkscape.org/) -->

<svg
   width="541.85645mm"
   height="541.83307mm"
   viewBox="0 0 541.85645 541.83307"
   version="1.1"
   id="svg1"
   xml:space="preserve"
   inkscape:version="1.4.2 (f4327f4, 2025-05-13)"
   sodipodi:docname="searchicon.svg"
   xmlns:inkscape="http://www.inkscape.org/namespaces/inkscape"
   xmlns:sodipodi="http://sodipodi.sourceforge.net/DTD/sodipodi-0.dtd"
   xmlns="http://www.w3.org/2000/svg"
   xmlns:svg="http://www.w3.org/2000/svg"><sodipodi:namedview
     id="namedview1"
     pagecolor="#ffffff"
     bordercolor="#000000"
     borderopacity="0.25"
     inkscape:showpageshadow="2"
     inkscape:pageopacity="0.0"
     inkscape:pagecheckerboard="0"
     inkscape:deskcolor="#d1d1d1"
     inkscape:document-units="mm"
     inkscape:zoom="0.28582991"
     inkscape:cx="-491.55107"
     inkscape:cy="1751.0414"
     inkscape:window-width="3840"
     inkscape:window-height="2054"
     inkscape:window-x="-11"
     inkscape:window-y="-11"
     inkscape:window-maximized="1"
     inkscape:current-layer="layer1" /><defs
     id="defs1" /><g
     inkscape:label="Layer 1"
     inkscape:groupmode="layer"
     id="layer1"
     transform="translate(165.88309,122.4685)"><path
       style="fill:#ffffff"
       d="m 250.66675,353.15259 c -45.65135,-45.68079 -66.48792,-66.70423 -67.19683,-67.79947 -4.73894,-7.32145 -4.11251,-16.94222 1.54586,-23.74144 l 1.32098,-1.58731 -22.7225,-22.72365 c -12.49736,-12.498 -22.80656,-22.72364 -22.90932,-22.72364 -0.10276,0 -1.88896,1.28522 -3.96933,2.85605 -48.133226,36.34402 -110.840698,47.41522 -168.88248,29.81673 -54.52163,-16.53116 -99.00371,-57.32507 -120.30273,-110.32798 -7.32865,-18.23746 -11.73653,-37.446113 -13.17513,-57.414583 -0.34626,-4.806379 -0.34403,-21.432221 0.004,-26.193749 1.05767,-14.490416 3.57872,-28.254768 7.64401,-41.734636 12.49788,-41.441004 39.35082,-77.773095 75.427208,-102.053184 27.76419,-18.685828 59.172298,-29.425578 92.935732,-31.778628 6.096912,-0.42491 25.137845,-0.18315 30.588797,0.38838 15.48028,1.62311 29.759094,4.70316 43.26872,9.33339 52.488083,17.989562 94.606923,58.331966 114.862123,110.0175978 11.787,30.0771592 15.6188,63.0699712 11.08513,95.4459812 -4.58951,32.774851 -17.66742,63.544831 -38.20212,89.882801 l -2.93104,3.75937 22.63414,22.60019 c 12.44878,12.4301 22.69012,22.60019 22.75853,22.60019 0.0684,0 0.85517,-0.58887 1.74835,-1.3086 1.94373,-1.56628 4.45417,-2.91973 6.97766,-3.76187 1.61907,-0.54031 2.3514,-0.61691 5.82084,-0.60884 3.63888,0.008 4.14467,0.0702 6.08541,0.74288 4.80853,1.66669 -0.29051,-3.22584 73.35573,70.38483 l 67.53489,67.50227 v 2.64759 2.64758 l -24.67292,24.67187 -24.67292,24.67186 h -4.89551 -4.89551 z M 37.703127,214.98494 c 29.661943,-3.15409 55.981592,-13.91755 78.845833,-32.2441 7.67355,-6.15065 16.57446,-15.05316 22.79609,-22.80021 18.27315,-22.75338 29.1465,-49.34291 32.24271,-78.845833 0.58214,-5.547058 0.79905,-18.216536 0.40996,-23.944791 C 170.8616,40.424021 167.43013,25.293785 161.35373,10.217935 148.1143,-22.629799 122.49015,-50.541966 90.802689,-66.632731 73.795446,-75.26894 55.941405,-80.407132 36.247918,-82.33298 c -5.615327,-0.54913 -22.560557,-0.465706 -28.0375563,0.138032 -31.5232067,3.474852 -59.2658377,15.377313 -82.5582707,35.420093 -30.380001,26.141523 -48.804811,63.004041 -51.613631,103.263403 -0.39725,5.693857 -0.17165,19.439504 0.40819,24.870832 2.30195,21.56213 8.59477,41.10342 19.21255,59.66136 11.543233,20.17545 29.468709,38.84909 49.45539,51.51952 20.809782,13.19223 44.211646,20.86667 69.585413,22.81994 4.633119,0.35666 20.336401,0.12098 25.003124,-0.37526 z"
       id="path1" /></g></svg>
